<svg width="24" height="25" viewBox="0 0 24 25" fill="none" xmlns="http://www.w3.org/2000/svg">
<path d="M21 4.56425V19.9172C21 20.2682 20.8606 20.6049 20.6123 20.8531C20.3641 21.1013 20.0275 21.2407 19.6765 21.2407H4.32353C3.97251 21.2407 3.63586 21.1013 3.38765 20.8531C3.13944 20.6049 3 20.2682 3 19.9172V4.56425C3 4.21323 3.13944 3.87659 3.38765 3.62838C3.63586 3.38017 3.97251 3.24072 4.32353 3.24072H19.6765C20.0275 3.24072 20.3641 3.38017 20.6123 3.62838C20.8606 3.87659 21 4.21323 21 4.56425ZM8.29412 10.1231H5.64706V18.5937H8.29412V10.1231ZM8.53235 7.21131C8.53375 7.01108 8.49569 6.81254 8.42035 6.62702C8.34502 6.4415 8.23387 6.27264 8.09328 6.13007C7.95268 5.9875 7.78537 5.87403 7.60091 5.79612C7.41646 5.71821 7.21846 5.6774 7.01824 5.67602H6.97059C6.5634 5.67602 6.17289 5.83777 5.88497 6.12569C5.59705 6.41362 5.43529 6.80413 5.43529 7.21131C5.43529 7.6185 5.59705 8.009 5.88497 8.29693C6.17289 8.58485 6.5634 8.7466 6.97059 8.7466C7.17083 8.75153 7.37008 8.71695 7.55696 8.64485C7.74383 8.57274 7.91467 8.46452 8.0597 8.32637C8.20474 8.18822 8.32113 8.02284 8.40223 7.83969C8.48333 7.65654 8.52755 7.4592 8.53235 7.25896V7.21131ZM18.3529 13.4478C18.3529 10.9013 16.7329 9.91131 15.1235 9.91131C14.5966 9.88493 14.0719 9.99716 13.6019 10.2368C13.1318 10.4765 12.7328 10.8352 12.4447 11.2772H12.3706V10.1231H9.88235V18.5937H12.5294V14.0884C12.4911 13.627 12.6365 13.1691 12.9339 12.8142C13.2313 12.4593 13.6567 12.2361 14.1176 12.1931H14.2182C15.06 12.1931 15.6847 12.7225 15.6847 14.0566V18.5937H18.3318L18.3529 13.4478Z" fill="white" fill-opacity="0.8"/>
</svg>
