<svg width="24" height="25" viewBox="0 0 24 25" fill="none" xmlns="http://www.w3.org/2000/svg">
<path d="M19.9525 8.16095C19.9647 8.33726 19.9647 8.51358 19.9647 8.69152C19.9647 14.1134 15.8371 20.3665 8.28966 20.3665V20.3633C6.06013 20.3665 3.8769 19.7279 2 18.5237C2.32419 18.5627 2.65001 18.5822 2.97664 18.583C4.82429 18.5847 6.61913 17.9647 8.07272 16.8231C6.31688 16.7898 4.77717 15.645 4.23928 13.9737C4.85436 14.0923 5.48812 14.0679 6.09181 13.903C4.17753 13.5162 2.80033 11.8343 2.80033 9.88104C2.80033 9.86316 2.80033 9.8461 2.80033 9.82904C3.37071 10.1467 4.00934 10.323 4.6626 10.3425C2.85964 9.13759 2.30388 6.73905 3.39265 4.86377C5.47593 7.42725 8.54966 8.98565 11.8493 9.15059C11.5186 7.72544 11.9703 6.23204 13.0364 5.23021C14.689 3.67669 17.2882 3.75632 18.8418 5.40816C19.7607 5.22696 20.6415 4.88977 21.4475 4.41201C21.1412 5.36184 20.5001 6.16867 19.6437 6.68136C20.457 6.58549 21.2517 6.36773 22 6.03541C21.4491 6.86093 20.7552 7.58 19.9525 8.16095Z" fill="white" fill-opacity="0.8"/>
</svg>
