<svg xmlns="http://www.w3.org/2000/svg" xmlns:xlink="http://www.w3.org/1999/xlink" viewBox="0 0 183 137" width="183" height="64" style="width: 100%; height: 100%; transform: translate3d(0px, 0px, 0px); content-visibility: visible;" preserveAspectRatio="xMidYMid meet"><defs><clipPath id="__lottie_element_1995"><rect width="183" height="137" x="0" y="0"></rect></clipPath><path d="" fill-opacity="1"></path><linearGradient id="__lottie_element_1999" spreadMethod="pad" gradientUnits="userSpaceOnUse" x1="-694" y1="198" x2="-516" y2="200"><stop offset="0%" stop-color="rgb(122,112,255)"></stop><stop offset="14%" stop-color="rgb(154,116,254)"></stop><stop offset="50%" stop-color="rgb(185,119,254)"></stop><stop offset="75%" stop-color="rgb(216,119,254)"></stop><stop offset="100%" stop-color="rgb(247,119,254)"></stop></linearGradient><mask id="__lottie_element_2000" mask-type="alpha"><g fill="none" stroke-linecap="round" stroke-dashoffset="1" stroke="#fff" stroke-width="15.6" opacity="1"><path d=" M-608.93798828125,266.5 C-608.93798828125,266.5 -625.625,246.43800354003906 -625.625,246.43800354003906 C-625.625,246.43800354003906 -669,245.5 -669,245.5 C-669,245.5 -681,247.5 -681,226 C-681,204.5 -681,153 -681,153 C-681,153 -681,140 -663,140 C-640.9940185546875,140 -549,140 -549,140 C-549,140 -533.5,140 -533.5,155 C-533.5,169.5 -534,230.5 -534,230.5 C-534,230.5 -531.5,246.5 -547.5,246.5 C-563.5,246.5 -589.5,247 -589.5,247 C-589.5,247 -606.5,260.5 -606.5,260.5" stroke-dasharray="1 2.34"></path></g></mask><linearGradient id="__lottie_element_2170" spreadMethod="pad" gradientUnits="userSpaceOnUse" x1="-682" y1="0" x2="-528" y2="0"><stop offset="0%" stop-color="rgb(122,112,255)"></stop><stop offset="14%" stop-color="rgb(154,116,254)"></stop><stop offset="50%" stop-color="rgb(185,119,254)"></stop><stop offset="75%" stop-color="rgb(216,119,254)"></stop><stop offset="100%" stop-color="rgb(247,119,254)"></stop></linearGradient><linearGradient id="__lottie_element_2174" spreadMethod="pad" gradientUnits="userSpaceOnUse" x1="-682" y1="0" x2="-526" y2="0"><stop offset="0%" stop-color="rgb(122,112,255)"></stop><stop offset="14%" stop-color="rgb(154,116,254)"></stop><stop offset="50%" stop-color="rgb(185,119,254)"></stop><stop offset="75%" stop-color="rgb(216,119,254)"></stop><stop offset="100%" stop-color="rgb(247,119,254)"></stop></linearGradient><linearGradient id="__lottie_element_2178" spreadMethod="pad" gradientUnits="userSpaceOnUse" x1="-684" y1="0" x2="-531.5" y2="0"><stop offset="0%" stop-color="rgb(122,112,255)"></stop><stop offset="14%" stop-color="rgb(154,116,254)"></stop><stop offset="50%" stop-color="rgb(185,119,254)"></stop><stop offset="75%" stop-color="rgb(216,119,254)"></stop><stop offset="100%" stop-color="rgb(247,119,254)"></stop></linearGradient></defs><g clip-path="url(#__lottie_element_1995)"><g style="display: block;" transform="matrix(1,0,0,1,701,-129.50001525878906)" opacity="1"><g opacity="1" transform="matrix(1,0,0,1,0,0)"><path fill="url(#__lottie_element_2170)" fill-opacity="1" d=" M-574.1649780273438,181.5970001220703 C-579.9229736328125,181.5970001220703 -584.614013671875,186.28799438476562 -584.614013671875,192.04600524902344 C-584.614013671875,197.8040008544922 -579.9229736328125,202.4949951171875 -574.1649780273438,202.4949951171875 C-568.406982421875,202.4949951171875 -563.7160034179688,197.8040008544922 -563.7160034179688,192.04600524902344 C-563.7160034179688,186.28799438476562 -568.406982421875,181.5970001220703 -574.1649780273438,181.5970001220703z M-574.1649780273438,195.80299377441406 C-576.2550048828125,195.80299377441406 -577.9439697265625,194.11399841308594 -577.9439697265625,192.0240020751953 C-577.9439697265625,189.9340057373047 -576.2550048828125,188.24400329589844 -574.1649780273438,188.24400329589844 C-572.0750122070312,188.24400329589844 -570.385009765625,189.9340057373047 -570.385009765625,192.0240020751953 C-570.385009765625,194.11399841308594 -572.0750122070312,195.80299377441406 -574.1649780273438,195.80299377441406z"></path></g></g><g style="display: block;" transform="matrix(1,0,0,1,701,-129.50001525878906)" opacity="1"><g opacity="1" transform="matrix(1,0,0,1,0,0)"><path fill="url(#__lottie_element_2174)" fill-opacity="1" d=" M-606.9119873046875,181.5970001220703 C-612.6699829101562,181.5970001220703 -617.3610229492188,186.28799438476562 -617.3610229492188,192.04600524902344 C-617.3610229492188,197.8040008544922 -612.6699829101562,202.4949951171875 -606.9119873046875,202.4949951171875 C-601.1539916992188,202.4949951171875 -596.4630126953125,197.8040008544922 -596.4630126953125,192.04600524902344 C-596.4630126953125,186.28799438476562 -601.1539916992188,181.5970001220703 -606.9119873046875,181.5970001220703z M-606.9119873046875,195.80299377441406 C-609.0020141601562,195.80299377441406 -610.6920166015625,194.11399841308594 -610.6920166015625,192.0240020751953 C-610.6920166015625,189.9340057373047 -609.0020141601562,188.24400329589844 -606.9119873046875,188.24400329589844 C-604.822021484375,188.24400329589844 -603.1329956054688,189.9340057373047 -603.1329956054688,192.0240020751953 C-603.1329956054688,194.11399841308594 -604.822021484375,195.80299377441406 -606.9119873046875,195.80299377441406z"></path></g></g><g style="display: block;" transform="matrix(1,0,0,1,701,-129.50001525878906)" opacity="1"><g opacity="1" transform="matrix(1,0,0,1,0,0)"><path fill="url(#__lottie_element_2178)" fill-opacity="1" d=" M-639.6599731445312,181.5970001220703 C-645.4180297851562,181.5970001220703 -650.1090087890625,186.28799438476562 -650.1090087890625,192.04600524902344 C-650.1090087890625,197.8040008544922 -645.4180297851562,202.4949951171875 -639.6599731445312,202.4949951171875 C-633.9019775390625,202.4949951171875 -629.2109985351562,197.8040008544922 -629.2109985351562,192.04600524902344 C-629.2109985351562,186.28799438476562 -633.9019775390625,181.5970001220703 -639.6599731445312,181.5970001220703z M-639.6599731445312,195.80299377441406 C-641.75,195.80299377441406 -643.4390258789062,194.11399841308594 -643.4390258789062,192.0240020751953 C-643.4390258789062,189.9340057373047 -641.75,188.24400329589844 -639.6599731445312,188.24400329589844 C-637.5700073242188,188.24400329589844 -635.8800048828125,189.9340057373047 -635.8800048828125,192.0240020751953 C-635.8800048828125,194.11399841308594 -637.5700073242188,195.80299377441406 -639.6599731445312,195.80299377441406z"></path></g></g><g style="display: block;" transform="matrix(1,0,0,1,701,-129.50001525878906)" opacity="1"><g mask="url(#__lottie_element_2000)"><g opacity="1" transform="matrix(1,0,0,1,0,0)"><path fill="url(#__lottie_element_1999)" fill-opacity="1" d=" M-545.530029296875,137.02200317382812 C-545.530029296875,137.02200317382812 -668.2940063476562,137.02200317382812 -668.2940063476562,137.02200317382812 C-676.7420043945312,137.02200317382812 -683.6119995117188,144.07000732421875 -683.6119995117188,152.71800231933594 C-683.6119995117188,152.71800231933594 -683.6119995117188,233.5749969482422 -683.6119995117188,233.5749969482422 C-683.6119995117188,242.22300720214844 -676.7420043945312,249.27099609375 -668.2940063476562,249.27099609375 C-668.2940063476562,249.27099609375 -624.6309814453125,249.27099609375 -624.6309814453125,249.27099609375 C-624.6309814453125,249.27099609375 -609.4019775390625,264.96600341796875 -609.4019775390625,264.96600341796875 C-608.780029296875,265.6109924316406 -607.9119873046875,265.9670104980469 -607.0230102539062,265.989013671875 C-607.0230102539062,265.989013671875 -607.0230102539062,265.989013671875 -607.0230102539062,265.989013671875 C-606.1339721679688,265.989013671875 -605.2659912109375,265.6340026855469 -604.6439819335938,264.989013671875 C-604.6439819335938,264.989013671875 -589.2160034179688,249.29299926757812 -589.2160034179688,249.29299926757812 C-589.2160034179688,249.29299926757812 -545.530029296875,249.29299926757812 -545.530029296875,249.29299926757812 C-537.0819702148438,249.29299926757812 -530.2119750976562,242.2449951171875 -530.2119750976562,233.5970001220703 C-530.2119750976562,233.5970001220703 -530.2119750976562,152.6959991455078 -530.2119750976562,152.6959991455078 C-530.2119750976562,144.04800415039062 -537.0819702148438,137 -545.530029296875,137 C-545.530029296875,137 -545.530029296875,137.02200317382812 -545.530029296875,137.02200317382812z M-536.8820190429688,233.5749969482422 C-536.8820190429688,238.55499267578125 -540.77197265625,242.6009979248047 -545.530029296875,242.6009979248047 C-545.530029296875,242.6009979248047 -590.6160278320312,242.6009979248047 -590.6160278320312,242.6009979248047 C-591.5050048828125,242.6009979248047 -592.3729858398438,242.95700073242188 -592.9949951171875,243.6020050048828 C-592.9949951171875,243.6020050048828 -607.0009765625,257.8739929199219 -607.0009765625,257.8739929199219 C-607.0009765625,257.8739929199219 -620.8289794921875,243.62399291992188 -620.8289794921875,243.62399291992188 C-621.4509887695312,242.97900390625 -622.3189697265625,242.6009979248047 -623.22998046875,242.6009979248047 C-623.22998046875,242.6009979248047 -668.3159790039062,242.6009979248047 -668.3159790039062,242.6009979248047 C-673.0960083007812,242.6009979248047 -676.9650268554688,238.55499267578125 -676.9650268554688,233.5749969482422 C-676.9650268554688,233.5749969482422 -676.9650268554688,152.6959991455078 -676.9650268554688,152.6959991455078 C-676.9650268554688,147.71600341796875 -673.073974609375,143.6699981689453 -668.3159790039062,143.6699981689453 C-668.3159790039062,143.6699981689453 -545.552001953125,143.6699981689453 -545.552001953125,143.6699981689453 C-540.77197265625,143.6699981689453 -536.9039916992188,147.71600341796875 -536.9039916992188,152.6959991455078 C-536.9039916992188,152.6959991455078 -536.9039916992188,233.55299377441406 -536.9039916992188,233.55299377441406 C-536.9039916992188,233.55299377441406 -536.8820190429688,233.5749969482422 -536.8820190429688,233.5749969482422z"></path></g></g></g></g></svg>
