<svg width="154" height="40" viewBox="0 0 154 40" fill="none" xmlns="http://www.w3.org/2000/svg">
<g opacity="0.8" clip-path="url(#clip0_133_58)">
<path d="M33.7396 27.3206C33.6414 27.1363 33.1276 26.9854 32.9175 27.0753C29.3962 28.5731 26.7812 31.0918 24.6111 34.3845C29.7857 36.0179 34.7365 37.5797 40.0016 39.242C37.8176 35.0625 35.7978 31.1817 33.7411 27.3221L33.7396 27.3206Z" fill="white"/>
<path d="M32.2028 22.4105C31.3516 22.2048 30.8792 21.8422 30.4988 21.0956C29.0326 18.2112 27.5128 15.3528 26.0113 12.4867C24.0114 8.66677 22.0114 4.84837 19.8704 0.76181C13.1651 13.5792 6.58257 26.1619 0 38.7461C0.0782179 38.8162 0.157969 38.8848 0.236187 38.9549C11.929 30.5821 24.473 24.5376 39.3881 24.7037C36.9971 23.7468 34.6198 22.9972 32.2028 22.4105ZM14.1176 23.3278C15.9887 19.7441 17.8628 16.1542 19.8673 12.3145C21.5498 15.5249 23.1234 18.5266 24.6816 21.4994C21.1066 22.118 17.6696 22.7138 14.1176 23.3293V23.3278Z" fill="white"/>
</g>
<path d="M49 27.711L55.072 12.135H58.592L64.598 27.711H61.21L60.242 25.049H53.356L52.388 27.711H49ZM54.368 22.211H59.252L56.832 15.479L54.368 22.211Z" fill="white" fill-opacity="0.4"/>
<path d="M70.6026 27.865C69.4293 27.865 68.454 27.601 67.6766 27.073C66.914 26.5303 66.342 25.8117 65.9606 24.917C65.5793 24.0077 65.3886 23.003 65.3886 21.903C65.3886 20.7443 65.594 19.7177 66.0046 18.823C66.4153 17.9137 67.024 17.2023 67.8306 16.689C68.6373 16.1757 69.642 15.919 70.8446 15.919C71.2553 15.919 71.6586 15.9703 72.0546 16.073C72.4653 16.161 72.8393 16.3003 73.1766 16.491C73.5286 16.667 73.8293 16.9017 74.0786 17.195V12.135H77.1586V27.711H74.1666L74.1226 26.413C73.8586 26.7503 73.536 27.029 73.1546 27.249C72.788 27.4543 72.392 27.6083 71.9666 27.711C71.5413 27.8137 71.0866 27.865 70.6026 27.865ZM71.2186 25.093C71.8786 25.093 72.414 24.939 72.8246 24.631C73.25 24.323 73.5653 23.927 73.7706 23.443C73.976 22.959 74.0786 22.4383 74.0786 21.881C74.0786 21.309 73.976 20.7883 73.7706 20.319C73.58 19.835 73.272 19.4537 72.8466 19.175C72.436 18.8817 71.8933 18.735 71.2186 18.735C70.544 18.735 70.0013 18.889 69.5906 19.197C69.18 19.505 68.8866 19.9083 68.7106 20.407C68.5493 20.891 68.4686 21.4117 68.4686 21.969C68.4686 22.3797 68.5126 22.7757 68.6006 23.157C68.7033 23.5237 68.8646 23.8537 69.0846 24.147C69.3046 24.4403 69.5906 24.675 69.9426 24.851C70.2946 25.0123 70.72 25.093 71.2186 25.093Z" fill="white" fill-opacity="0.4"/>
<path d="M84.9906 27.865C83.8173 27.865 82.7906 27.6303 81.9106 27.161C81.0306 26.677 80.3486 25.995 79.8646 25.115C79.3806 24.2203 79.1386 23.1643 79.1386 21.947C79.1386 20.7003 79.3806 19.6297 79.8646 18.735C80.3633 17.8257 81.0526 17.129 81.9326 16.645C82.8126 16.161 83.8246 15.919 84.9686 15.919C86.142 15.919 87.1613 16.1683 88.0266 16.667C88.892 17.1657 89.5666 17.8623 90.0506 18.757C90.5346 19.6517 90.7766 20.7223 90.7766 21.969C90.7766 23.1863 90.5346 24.2423 90.0506 25.137C89.5813 26.017 88.914 26.6917 88.0486 27.161C87.198 27.6303 86.1786 27.865 84.9906 27.865ZM84.9466 25.049C85.6213 25.049 86.164 24.9023 86.5746 24.609C86.9853 24.3157 87.2786 23.9343 87.4546 23.465C87.6453 22.981 87.7406 22.475 87.7406 21.947C87.7406 21.419 87.6453 20.913 87.4546 20.429C87.2786 19.945 86.9853 19.549 86.5746 19.241C86.1786 18.9183 85.636 18.757 84.9466 18.757C84.2866 18.757 83.7513 18.9183 83.3406 19.241C82.93 19.549 82.6293 19.945 82.4386 20.429C82.2626 20.913 82.1746 21.419 82.1746 21.947C82.1746 22.4897 82.2626 22.9957 82.4386 23.465C82.6293 23.9343 82.93 24.3157 83.3406 24.609C83.7513 24.9023 84.2866 25.049 84.9466 25.049Z" fill="white" fill-opacity="0.4"/>
<path d="M97.2805 27.865C96.7379 27.865 96.1805 27.8063 95.6085 27.689C95.0365 27.5717 94.5085 27.3737 94.0245 27.095C93.5405 26.8017 93.1299 26.413 92.7925 25.929C92.4552 25.4303 92.2352 24.8143 92.1325 24.081H95.2565C95.3445 24.345 95.4985 24.5723 95.7185 24.763C95.9532 24.9537 96.2172 25.093 96.5105 25.181C96.8185 25.269 97.1265 25.313 97.4345 25.313C97.6399 25.313 97.8452 25.2983 98.0505 25.269C98.2559 25.2397 98.4465 25.181 98.6225 25.093C98.7985 25.005 98.9379 24.895 99.0405 24.763C99.1432 24.6163 99.1945 24.433 99.1945 24.213C99.1945 23.9783 99.1212 23.795 98.9745 23.663C98.8279 23.531 98.6225 23.4283 98.3585 23.355C98.0945 23.267 97.7939 23.1863 97.4565 23.113C96.8552 22.981 96.2099 22.8343 95.5205 22.673C94.8312 22.5117 94.2372 22.277 93.7385 21.969C93.5332 21.8223 93.3499 21.661 93.1885 21.485C93.0272 21.309 92.8952 21.111 92.7925 20.891C92.6899 20.671 92.6092 20.4437 92.5505 20.209C92.4919 19.9597 92.4625 19.6957 92.4625 19.417C92.4625 18.7863 92.5945 18.251 92.8585 17.811C93.1372 17.3563 93.5039 16.9897 93.9585 16.711C94.4132 16.4323 94.9192 16.2343 95.4765 16.117C96.0339 15.985 96.6059 15.919 97.1925 15.919C97.9845 15.919 98.7179 16.051 99.3925 16.315C100.067 16.5643 100.625 16.9603 101.065 17.503C101.505 18.031 101.776 18.7203 101.879 19.571H98.9305C98.8719 19.2483 98.6739 18.9917 98.3365 18.801C97.9992 18.5957 97.5812 18.493 97.0825 18.493C96.9065 18.493 96.7159 18.5077 96.5105 18.537C96.3199 18.5663 96.1439 18.6177 95.9825 18.691C95.8212 18.7643 95.6892 18.867 95.5865 18.999C95.4839 19.1163 95.4325 19.2777 95.4325 19.483C95.4325 19.6443 95.4765 19.791 95.5645 19.923C95.6672 20.055 95.8065 20.165 95.9825 20.253C96.1732 20.341 96.4005 20.4217 96.6645 20.495C97.1632 20.6123 97.6619 20.7223 98.1605 20.825C98.6739 20.913 99.1285 21.0083 99.5245 21.111C100.009 21.2137 100.449 21.3823 100.845 21.617C101.255 21.8517 101.585 22.1743 101.835 22.585C102.099 22.981 102.231 23.5017 102.231 24.147C102.231 24.8803 102.084 25.489 101.791 25.973C101.497 26.4423 101.101 26.8163 100.603 27.095C100.119 27.3737 99.5832 27.5717 98.9965 27.689C98.4245 27.8063 97.8525 27.865 97.2805 27.865Z" fill="white" fill-opacity="0.4"/>
<path d="M104.468 27.711V12.135H107.614V24.807H115.512V27.711H104.468Z" fill="white" fill-opacity="0.4"/>
<path d="M120.979 27.865C120.451 27.865 119.938 27.799 119.439 27.667C118.955 27.5203 118.523 27.3003 118.141 27.007C117.76 26.7137 117.459 26.347 117.239 25.907C117.019 25.467 116.909 24.9537 116.909 24.367C116.909 23.575 117.071 22.9443 117.393 22.475C117.716 21.991 118.149 21.6243 118.691 21.375C119.234 21.1257 119.857 20.957 120.561 20.869C121.28 20.781 122.021 20.737 122.783 20.737H124.455C124.455 20.3117 124.375 19.9377 124.213 19.615C124.067 19.2777 123.839 19.021 123.531 18.845C123.223 18.6543 122.827 18.559 122.343 18.559C122.035 18.559 121.735 18.603 121.441 18.691C121.163 18.7643 120.928 18.8743 120.737 19.021C120.547 19.1677 120.422 19.3583 120.363 19.593H117.239C117.327 18.9477 117.533 18.3977 117.855 17.943C118.178 17.4737 118.581 17.0923 119.065 16.799C119.549 16.5057 120.077 16.293 120.649 16.161C121.236 16.0143 121.837 15.941 122.453 15.941C124.14 15.941 125.387 16.425 126.193 17.393C127 18.3463 127.403 19.703 127.403 21.463V27.711H124.631L124.587 26.215C124.221 26.7283 123.803 27.1023 123.333 27.337C122.879 27.5717 122.439 27.7183 122.013 27.777C121.588 27.8357 121.243 27.865 120.979 27.865ZM121.683 25.423C122.197 25.423 122.666 25.3203 123.091 25.115C123.517 24.9097 123.854 24.631 124.103 24.279C124.353 23.927 124.477 23.531 124.477 23.091V22.805H122.365C122.057 22.805 121.757 22.8197 121.463 22.849C121.185 22.8783 120.928 22.937 120.693 23.025C120.473 23.0983 120.297 23.223 120.165 23.399C120.033 23.575 119.967 23.8097 119.967 24.103C119.967 24.3963 120.041 24.6457 120.187 24.851C120.349 25.0417 120.561 25.1883 120.825 25.291C121.089 25.379 121.375 25.423 121.683 25.423Z" fill="white" fill-opacity="0.4"/>
<path d="M136.409 27.865C136.028 27.865 135.624 27.8283 135.199 27.755C134.788 27.6817 134.378 27.5423 133.967 27.337C133.571 27.117 133.197 26.809 132.845 26.413L132.823 27.711H129.809V12.135H132.889V17.481C133.329 16.953 133.872 16.5643 134.517 16.315C135.177 16.051 135.859 15.919 136.563 15.919C137.707 15.919 138.646 16.183 139.379 16.711C140.112 17.2243 140.655 17.9283 141.007 18.823C141.374 19.7177 141.557 20.7443 141.557 21.903C141.557 23.0323 141.374 24.0517 141.007 24.961C140.64 25.8557 140.076 26.567 139.313 27.095C138.565 27.6083 137.597 27.865 136.409 27.865ZM135.749 25.115C136.468 25.115 137.025 24.9537 137.421 24.631C137.817 24.3083 138.096 23.8977 138.257 23.399C138.418 22.9003 138.499 22.3797 138.499 21.837C138.499 21.2943 138.411 20.7883 138.235 20.319C138.059 19.835 137.766 19.4537 137.355 19.175C136.959 18.8817 136.424 18.735 135.749 18.735C135.133 18.735 134.605 18.889 134.165 19.197C133.74 19.4903 133.417 19.879 133.197 20.363C132.977 20.847 132.867 21.3677 132.867 21.925C132.867 22.4823 132.962 23.0103 133.153 23.509C133.358 23.993 133.674 24.3817 134.099 24.675C134.524 24.9683 135.074 25.115 135.749 25.115Z" fill="white" fill-opacity="0.4"/>
<path d="M148.07 27.865C147.527 27.865 146.97 27.8063 146.398 27.689C145.826 27.5717 145.298 27.3737 144.814 27.095C144.33 26.8017 143.919 26.413 143.582 25.929C143.244 25.4303 143.024 24.8143 142.922 24.081H146.046C146.134 24.345 146.288 24.5723 146.508 24.763C146.742 24.9537 147.006 25.093 147.3 25.181C147.608 25.269 147.916 25.313 148.224 25.313C148.429 25.313 148.634 25.2983 148.84 25.269C149.045 25.2397 149.236 25.181 149.412 25.093C149.588 25.005 149.727 24.895 149.83 24.763C149.932 24.6163 149.984 24.433 149.984 24.213C149.984 23.9783 149.91 23.795 149.764 23.663C149.617 23.531 149.412 23.4283 149.148 23.355C148.884 23.267 148.583 23.1863 148.246 23.113C147.644 22.981 146.999 22.8343 146.31 22.673C145.62 22.5117 145.026 22.277 144.528 21.969C144.322 21.8223 144.139 21.661 143.978 21.485C143.816 21.309 143.684 21.111 143.582 20.891C143.479 20.671 143.398 20.4437 143.34 20.209C143.281 19.9597 143.252 19.6957 143.252 19.417C143.252 18.7863 143.384 18.251 143.648 17.811C143.926 17.3563 144.293 16.9897 144.748 16.711C145.202 16.4323 145.708 16.2343 146.266 16.117C146.823 15.985 147.395 15.919 147.982 15.919C148.774 15.919 149.507 16.051 150.182 16.315C150.856 16.5643 151.414 16.9603 151.854 17.503C152.294 18.031 152.565 18.7203 152.668 19.571H149.72C149.661 19.2483 149.463 18.9917 149.126 18.801C148.788 18.5957 148.37 18.493 147.872 18.493C147.696 18.493 147.505 18.5077 147.3 18.537C147.109 18.5663 146.933 18.6177 146.772 18.691C146.61 18.7643 146.478 18.867 146.376 18.999C146.273 19.1163 146.222 19.2777 146.222 19.483C146.222 19.6443 146.266 19.791 146.354 19.923C146.456 20.055 146.596 20.165 146.772 20.253C146.962 20.341 147.19 20.4217 147.454 20.495C147.952 20.6123 148.451 20.7223 148.95 20.825C149.463 20.913 149.918 21.0083 150.314 21.111C150.798 21.2137 151.238 21.3823 151.634 21.617C152.044 21.8517 152.374 22.1743 152.624 22.585C152.888 22.981 153.02 23.5017 153.02 24.147C153.02 24.8803 152.873 25.489 152.58 25.973C152.286 26.4423 151.89 26.8163 151.392 27.095C150.908 27.3737 150.372 27.5717 149.786 27.689C149.214 27.8063 148.642 27.865 148.07 27.865Z" fill="white" fill-opacity="0.4"/>
<defs>
<clipPath id="clip0_133_58">
<rect width="40" height="38.481" fill="white" transform="translate(0 0.759491)"/>
</clipPath>
</defs>
</svg>
