<svg width="143" height="31" viewBox="0 0 143 31" fill="none" xmlns="http://www.w3.org/2000/svg">
<path d="M28.5321 9.72718H21.8788V29.9585H28.5321V9.72718Z" fill="white"/>
<path d="M36.5597 1.81533H29.9083V29.9605H36.5597V1.81533Z" fill="white"/>
<path d="M44.5872 1.81533H37.9358V29.9605H44.5872V1.81533Z" fill="white"/>
<path d="M116.181 11.8133V9.72718H109.529V29.9585H116.181V20.3155C116.181 17.8345 117.479 16.4962 119.841 16.4962H120.628V9.52974C118.62 9.60951 117.164 10.2397 116.181 11.8133Z" fill="white"/>
<path d="M25.2054 0.720398C23.0754 0.720398 21.3482 2.44756 21.3482 4.5776C21.3482 6.70764 23.0754 8.4348 25.2054 8.4348C27.3355 8.4348 29.0627 6.70764 29.0627 4.5776C29.0627 2.44756 27.3355 0.720398 25.2054 0.720398Z" fill="white"/>
<path d="M101.498 11.2669C100.565 10.2477 98.3886 9.40409 96.7352 9.40409C91.7113 9.40409 88.1054 12.7168 87.2259 17.641C86.2645 12.9183 82.1461 9.28243 77.1261 9.28243C72.1062 9.28243 67.9079 12.9581 67.0005 17.7687C66.1189 12.7687 62.1859 9.45395 57.3076 9.45395C55.4967 9.45395 54.0009 9.84685 52.7025 10.7523V1.81932H46.0511V29.9645H52.5848V28.1137C54.1584 29.5696 55.8517 30.2398 57.9378 30.2398C62.4313 30.2398 66.2147 26.7236 67.0244 21.8752C67.9777 26.6199 72.0723 30.2258 77.1261 30.2258C82.18 30.2258 86.1608 26.6937 87.184 22.0706C88.0296 27.1225 92.0304 30.2797 96.813 30.2797C98.4664 30.2797 100.277 29.7292 101.498 28.8237V29.9645H108.149V21.1093C108.149 20.7463 108.147 20.3933 108.139 20.0463C108.147 19.6993 108.149 19.3463 108.149 18.9833V9.76308H101.498V11.2709V11.2669ZM56.5996 23.7978C54.4695 23.7978 52.7424 22.0706 52.7424 19.9386C52.7424 17.8066 54.4695 16.0814 56.5996 16.0814C58.7296 16.0814 60.4568 17.8086 60.4568 19.9386C60.4568 22.0686 58.7296 23.7978 56.5996 23.7978ZM77.1281 23.4907C74.9981 23.4907 73.2709 21.7635 73.2709 19.6315C73.2709 17.4994 74.9981 15.7743 77.1281 15.7743C79.2582 15.7743 80.9853 17.5014 80.9853 19.6315C80.9853 21.7615 79.2582 23.4907 77.1281 23.4907ZM97.1162 23.6123C94.9861 23.6123 93.259 21.8852 93.259 19.7531C93.259 17.6211 94.9861 15.8959 97.1162 15.8959C99.2462 15.8959 100.973 17.6231 100.973 19.7531C100.973 21.8832 99.2462 23.6123 97.1162 23.6123Z" fill="white"/>
<path d="M135.389 1.81334V10.7483C134.091 9.84286 132.595 9.44996 130.784 9.44996C125.233 9.44996 120.904 13.74 120.904 19.9206C120.904 25.7463 125.076 30.2338 130.154 30.2338C132.24 30.2338 133.933 29.5637 135.507 28.1097V29.9586H142.04V1.81334H135.389ZM131.472 23.7479C129.342 23.7479 127.615 22.0188 127.615 19.8887C127.615 17.7587 129.342 16.0315 131.472 16.0315C133.602 16.0315 135.329 17.7587 135.329 19.8887C135.329 22.0188 133.602 23.7479 131.472 23.7479Z" fill="white"/>
<path d="M11.2585 9.45595C9.44756 9.45595 7.95174 9.84884 6.65138 10.7543V1.81932H0V29.9645H6.53371V28.1137C8.1093 29.5696 9.80057 30.2398 11.8867 30.2398C16.9645 30.2398 21.1368 25.7523 21.1368 19.9266C21.1368 13.7459 16.807 9.45595 11.2585 9.45595ZM10.5505 23.7978C8.42043 23.7978 6.69327 22.0706 6.69327 19.9386C6.69327 17.8066 8.42043 16.0814 10.5505 16.0814C12.6805 16.0814 14.4077 17.8086 14.4077 19.9386C14.4077 22.0686 12.6805 23.7978 10.5505 23.7978Z" fill="white"/>
</svg>
