<svg width="37" height="29" viewBox="0 0 37 29" fill="none" xmlns="http://www.w3.org/2000/svg">
<path d="M23.8879 0.724969C24.4223 1.7205 24.8472 2.76182 25.2017 3.83198C25.7738 5.55677 26.1558 7.32567 26.4342 9.1183C26.7451 11.1212 26.9266 13.136 27.044 15.1585C27.2675 19.0024 27.2769 22.8514 27.2855 26.7004C27.2864 27.2193 27.2855 27.7392 27.2855 28.2675H23.643C23.643 26.1831 23.6618 24.1039 23.6378 22.0246C23.613 19.9496 23.5453 17.8754 23.4957 15.7902H19.209V28.2666H15.7378C15.7378 28.2115 15.7378 28.1581 15.7378 28.1046C15.7378 19.0278 15.7378 9.95187 15.7378 0.875062C15.7378 0.825031 15.7421 0.774152 15.7438 0.724121C18.4579 0.724121 21.1721 0.724121 23.8871 0.724121L23.8879 0.724969ZM19.215 4.05161V12.4856H23.2087C23.2087 12.4534 23.2104 12.4339 23.2087 12.4144C23.0674 11.0441 22.8893 9.67797 22.6281 8.32459C22.3574 6.92118 22.008 5.53897 21.5069 4.19661C21.4633 4.07874 21.4067 4.04821 21.2877 4.04991C20.7421 4.05585 20.1966 4.05245 19.651 4.05245C19.5097 4.05245 19.3675 4.05245 19.2159 4.05245L19.215 4.05161Z" fill="white"/>
<path d="M8.21376 0.724969C8.21034 0.80044 8.20434 0.87591 8.20434 0.95138C8.20434 1.91554 8.20434 2.88054 8.20434 3.8447C8.20434 3.9049 8.20434 3.96426 8.20434 4.04737H3.9126V12.4924H7.19029V15.7784H3.90661V28.2759H0.0405273V0.724969C2.76751 0.724969 5.49106 0.724969 8.21376 0.724969Z" fill="white"/>
<path d="M36.7751 0.724969V4.04397H33.7372V28.2674H29.8677V4.05754H26.7648V0.724969H36.7751Z" fill="white"/>
<path d="M13.6634 0.724969C13.6626 0.795352 13.66 0.866582 13.66 0.936965C13.66 9.97392 13.66 19.0109 13.66 28.0478V28.2666H9.66718V28.0461C9.66718 19.0143 9.66718 9.9824 9.66718 0.949685C9.66718 0.874214 9.65862 0.799592 9.65434 0.724121C10.9913 0.724121 12.3282 0.724121 13.6643 0.724121L13.6634 0.724969Z" fill="white"/>
</svg>
